<svg width="100" height="101" viewBox="0 0 100 101" fill="none" xmlns="http://www.w3.org/2000/svg">
<path d="M43.7502 50.4482C42.2361 50.4528 40.7755 51.0082 39.6408 52.0107H39.0627V42.6357C39.0627 42.2213 38.8981 41.8239 38.6051 41.5309C38.312 41.2379 37.9146 41.0732 37.5002 41.0732H26.9096C26.6076 41.0733 26.3121 41.1609 26.0588 41.3255C25.8055 41.49 25.6054 41.7244 25.4826 42.0003C25.3597 42.2762 25.3195 42.5818 25.3667 42.8801C25.4139 43.1784 25.5466 43.4566 25.7487 43.6811C26.1563 44.1289 26.4251 44.6855 26.5222 45.2832C26.6194 45.881 26.5408 46.4941 26.296 47.048C26.0512 47.6019 25.6507 48.0727 25.1433 48.4032C24.6358 48.7337 24.0433 48.9097 23.4377 48.9097C22.8321 48.9097 22.2396 48.7337 21.7322 48.4032C21.2247 48.0727 20.8243 47.6019 20.5794 47.048C20.3346 46.4941 20.256 45.881 20.3532 45.2832C20.4504 44.6855 20.7191 44.1289 21.1268 43.6811C21.3288 43.4566 21.4615 43.1784 21.5087 42.8801C21.5559 42.5818 21.5157 42.2762 21.3929 42.0003C21.27 41.7244 21.0699 41.49 20.8166 41.3255C20.5634 41.1609 20.2678 41.0733 19.9658 41.0732H9.37521C8.96081 41.0732 8.56339 41.2379 8.27036 41.5309C7.97733 41.8239 7.81271 42.2213 7.81271 42.6357V70.7607C7.81271 71.1751 7.97733 71.5726 8.27036 71.8656C8.56339 72.1586 8.96081 72.3232 9.37521 72.3232H10.1924L7.92365 77.9936C7.77021 78.3783 7.77583 78.8083 7.93928 79.1889L12.5002 89.8311V95.7607C12.5002 96.1751 12.6648 96.5726 12.9579 96.8656C13.2509 97.1586 13.6483 97.3232 14.0627 97.3232C14.4771 97.3232 14.8745 97.1586 15.1676 96.8656C15.4606 96.5726 15.6252 96.1751 15.6252 95.7607V89.5107C15.6258 89.299 15.5827 89.0894 15.4987 88.8951L11.0658 78.5514L13.558 72.3232H20.3127V78.5732C20.3127 78.9876 20.4773 79.3851 20.7704 79.6781C21.0634 79.9711 21.4608 80.1357 21.8752 80.1357C22.2896 80.1357 22.687 79.9711 22.9801 79.6781C23.2731 79.3851 23.4377 78.9876 23.4377 78.5732V64.5107C23.4377 63.6819 23.767 62.8871 24.353 62.301C24.9391 61.715 25.7339 61.3857 26.5627 61.3857C27.3915 61.3857 28.1864 61.715 28.7724 62.301C29.3585 62.8871 29.6877 63.6819 29.6877 64.5107V77.0107C29.6877 77.4251 29.8523 77.8226 30.1454 78.1156C30.4384 78.4086 30.8358 78.5732 31.2502 78.5732C33.7908 78.5732 35.9377 82.1514 35.9377 86.3857C35.9377 90.6201 33.7908 94.1982 31.2502 94.1982C30.8358 94.1982 30.4384 94.3629 30.1454 94.6559C29.8523 94.9489 29.6877 95.3463 29.6877 95.7607C29.6877 96.1751 29.8523 96.5726 30.1454 96.8656C30.4384 97.1586 30.8358 97.3232 31.2502 97.3232C35.6252 97.3232 39.0627 92.5186 39.0627 86.3857C39.0627 81.0045 36.4205 76.6451 32.8127 75.6592V72.3232H37.5002C37.9146 72.3232 38.312 72.1586 38.6051 71.8656C38.8981 71.5726 39.0627 71.1751 39.0627 70.7607V61.3857H39.6408C40.4001 62.0553 41.3106 62.5304 42.294 62.7703C43.2775 63.0101 44.3045 63.0074 45.2867 62.7626C46.269 62.5177 47.177 62.0379 47.9328 61.3644C48.6885 60.6909 49.2694 59.844 49.6255 58.8964C49.9815 57.9488 50.102 56.9288 49.9767 55.9243C49.8513 54.9198 49.4839 53.9608 48.9059 53.1297C48.328 52.2987 47.5568 51.6204 46.6587 51.1533C45.7606 50.6862 44.7625 50.4443 43.7502 50.4482ZM43.7502 59.8232C43.3128 59.8226 42.8806 59.7289 42.4821 59.5484C42.0837 59.3679 41.7282 59.1047 41.4393 58.7764C41.2927 58.6139 41.1136 58.4841 40.9136 58.3953C40.7136 58.3064 40.4972 58.2606 40.2783 58.2607H37.5002C37.0858 58.2607 36.6884 58.4254 36.3954 58.7184C36.1023 59.0114 35.9377 59.4088 35.9377 59.8232V69.1982H32.8127V64.5107C32.8127 62.8531 32.1542 61.2634 30.9821 60.0913C29.81 58.9192 28.2203 58.2607 26.5627 58.2607C24.9051 58.2607 23.3154 58.9192 22.1433 60.0913C20.9712 61.2634 20.3127 62.8531 20.3127 64.5107V69.1982H10.9377V44.1982H17.3908C17.2558 44.7081 17.1875 45.2333 17.1877 45.7607C17.1877 47.4183 17.8462 49.0081 19.0183 50.1802C20.1904 51.3523 21.7801 52.0107 23.4377 52.0107C25.0953 52.0107 26.685 51.3523 27.8571 50.1802C29.0292 49.0081 29.6877 47.4183 29.6877 45.7607C29.6879 45.2333 29.6196 44.7081 29.4846 44.1982H35.9377V53.5732C35.9377 53.9876 36.1023 54.3851 36.3954 54.6781C36.6884 54.9711 37.0858 55.1357 37.5002 55.1357H40.2783C40.4972 55.1359 40.7136 55.0901 40.9136 55.0012C41.1136 54.9124 41.2927 54.7826 41.4393 54.6201C41.7282 54.2917 42.0837 54.0286 42.4821 53.8481C42.8806 53.6676 43.3128 53.5739 43.7502 53.5732C44.579 53.5732 45.3739 53.9025 45.9599 54.4885C46.546 55.0746 46.8752 55.8694 46.8752 56.6982C46.8752 57.527 46.546 58.3219 45.9599 58.908C45.3739 59.494 44.579 59.8232 43.7502 59.8232Z" fill="black"/>
<path d="M87.5 23.8859C85.9859 23.8905 84.5252 24.4459 83.3906 25.4484H82.8125V16.0734C82.8125 15.659 82.6479 15.2616 82.3549 14.9686C82.0618 14.6756 81.6644 14.5109 81.25 14.5109H70.6594C70.3574 14.511 70.0618 14.5986 69.8086 14.7631C69.5553 14.9277 69.3552 15.1621 69.2323 15.438C69.1095 15.7139 69.0693 16.0195 69.1165 16.3178C69.1637 16.6161 69.2964 16.8943 69.4984 17.1188C69.9061 17.5666 70.1748 18.1232 70.272 18.7209C70.3692 19.3187 70.2906 19.9318 70.0458 20.4857C69.801 21.0396 69.4005 21.5104 68.8931 21.8409C68.3856 22.1714 67.7931 22.3474 67.1875 22.3474C66.5819 22.3474 65.9894 22.1714 65.4819 21.8409C64.9745 21.5104 64.574 21.0396 64.3292 20.4857C64.0844 19.9318 64.0058 19.3187 64.103 18.7209C64.2002 18.1232 64.4689 17.5666 64.8766 17.1188C65.0786 16.8943 65.2113 16.6161 65.2585 16.3178C65.3057 16.0195 65.2655 15.7139 65.1427 15.438C65.0198 15.1621 64.8197 14.9277 64.5664 14.7631C64.3132 14.5986 64.0176 14.511 63.7156 14.5109H43.75V13.9328C44.5456 13.0307 45.064 11.9182 45.2429 10.7288C45.4219 9.5394 45.2539 8.32362 44.759 7.22734C44.2641 6.13107 43.4634 5.20088 42.453 4.54839C41.4425 3.8959 40.2653 3.54883 39.0625 3.54883C37.8597 3.54883 36.6825 3.8959 35.672 4.54839C34.6616 5.20088 33.8609 6.13107 33.366 7.22734C32.8711 8.32362 32.7031 9.5394 32.8821 10.7288C33.061 11.9182 33.5794 13.0307 34.375 13.9328V14.5109H25C24.5856 14.5109 24.1882 14.6756 23.8951 14.9686C23.6021 15.2616 23.4375 15.659 23.4375 16.0734V26.6641C23.4376 26.9661 23.5252 27.2616 23.6897 27.5149C23.8542 27.7681 24.0886 27.9683 24.3645 28.0911C24.6404 28.2139 24.946 28.2542 25.2443 28.2069C25.5426 28.1597 25.8208 28.027 26.0453 27.825C26.4931 27.4174 27.0498 27.1486 27.6475 27.0514C28.2452 26.9543 28.8583 27.0329 29.4122 27.2777C29.9661 27.5225 30.4369 27.923 30.7675 28.4304C31.098 28.9378 31.2739 29.5304 31.2739 30.1359C31.2739 30.7415 31.098 31.3341 30.7675 31.8415C30.4369 32.3489 29.9661 32.7494 29.4122 32.9942C28.8583 33.239 28.2452 33.3176 27.6475 33.2205C27.0498 33.1233 26.4931 32.8545 26.0453 32.4469C25.8208 32.2448 25.5426 32.1122 25.2443 32.0649C24.946 32.0177 24.6404 32.058 24.3645 32.1808C24.0886 32.3036 23.8542 32.5038 23.6897 32.757C23.5252 33.0103 23.4376 33.3058 23.4375 33.6078V37.9484H26.5625V36.1828C27.0723 36.3179 27.5976 36.3861 28.125 36.3859C29.7826 36.3859 31.3723 35.7275 32.5444 34.5554C33.7165 33.3833 34.375 31.7935 34.375 30.1359C34.375 28.4783 33.7165 26.8886 32.5444 25.7165C31.3723 24.5444 29.7826 23.8859 28.125 23.8859C27.5976 23.8857 27.0723 23.954 26.5625 24.0891V17.6359H35.9375C36.3519 17.6359 36.7493 17.4713 37.0424 17.1783C37.3354 16.8853 37.5 16.4878 37.5 16.0734V13.2953C37.5001 13.0765 37.4543 12.8601 37.3655 12.6601C37.2767 12.4601 37.1468 12.281 36.9844 12.1344C36.656 11.8454 36.3928 11.49 36.2123 11.0915C36.0318 10.6931 35.9382 10.2608 35.9375 9.82344C35.9375 8.99464 36.2667 8.19978 36.8528 7.61373C37.4388 7.02768 38.2337 6.69844 39.0625 6.69844C39.8913 6.69844 40.6862 7.02768 41.2722 7.61373C41.8583 8.19978 42.1875 8.99464 42.1875 9.82344C42.1868 10.2608 42.0932 10.6931 41.9127 11.0915C41.7322 11.49 41.469 11.8454 41.1406 12.1344C40.9782 12.281 40.8483 12.4601 40.7595 12.6601C40.6707 12.8601 40.6249 13.0765 40.625 13.2953V16.0734C40.625 16.4878 40.7896 16.8853 41.0826 17.1783C41.3757 17.4713 41.7731 17.6359 42.1875 17.6359H51.5625V24.0891C51.0527 23.954 50.5274 23.8857 50 23.8859C48.3424 23.8859 46.7527 24.5444 45.5806 25.7165C44.4085 26.8886 43.75 28.4783 43.75 30.1359C43.75 31.7935 44.4085 33.3833 45.5806 34.5554C46.7527 35.7275 48.3424 36.3859 50 36.3859C50.5274 36.3861 51.0527 36.3179 51.5625 36.1828V42.6359H42.1875V45.7609H51.5625V54.7891C51.5626 55.0911 51.6502 55.3866 51.8147 55.6399C51.9792 55.8931 52.2136 56.0933 52.4895 56.2161C52.7654 56.3389 53.071 56.3792 53.3693 56.3319C53.6676 56.2847 53.9458 56.1521 54.1703 55.95C54.6181 55.5424 55.1748 55.2736 55.7725 55.1764C56.3702 55.0793 56.9833 55.1579 57.5372 55.4027C58.0911 55.6475 58.5619 56.048 58.8925 56.5554C59.223 57.0628 59.3989 57.6554 59.3989 58.2609C59.3989 58.8665 59.223 59.4591 58.8925 59.9665C58.5619 60.4739 58.0911 60.8744 57.5372 61.1192C56.9833 61.364 56.3702 61.4426 55.7725 61.3455C55.1748 61.2483 54.6181 60.9795 54.1703 60.5719C53.9458 60.3698 53.6676 60.2372 53.3693 60.1899C53.071 60.1427 52.7654 60.183 52.4895 60.3058C52.2136 60.4286 51.9792 60.6288 51.8147 60.882C51.6502 61.1353 51.5626 61.4308 51.5625 61.7328V72.3234C51.5625 72.7378 51.7271 73.1353 52.0201 73.4283C52.3132 73.7213 52.7106 73.8859 53.125 73.8859H62.5V74.4641C61.7044 75.3662 61.186 76.4787 61.0071 77.6681C60.8281 78.8575 60.9961 80.0733 61.491 81.1695C61.9859 82.2658 62.7866 83.196 63.797 83.8485C64.8075 84.501 65.9847 84.8481 67.1875 84.8481C68.3903 84.8481 69.5675 84.501 70.578 83.8485C71.5884 83.196 72.3891 82.2658 72.884 81.1695C73.3789 80.0733 73.5469 78.8575 73.3679 77.6681C73.189 76.4787 72.6706 75.3662 71.875 74.4641V73.8859H81.25C81.6644 73.8859 82.0618 73.7213 82.3549 73.4283C82.6479 73.1353 82.8125 72.7378 82.8125 72.3234V61.7328C82.8124 61.4308 82.7248 61.1353 82.5603 60.882C82.3958 60.6288 82.1614 60.4286 81.8855 60.3058C81.6096 60.183 81.304 60.1427 81.0057 60.1899C80.7074 60.2372 80.4292 60.3698 80.2047 60.5719C79.7569 60.9795 79.2002 61.2483 78.6025 61.3455C78.0048 61.4426 77.3917 61.364 76.8378 61.1192C76.2839 60.8744 75.8131 60.4739 75.4825 59.9665C75.152 59.4591 74.9761 58.8665 74.9761 58.2609C74.9761 57.6554 75.152 57.0628 75.4825 56.5554C75.8131 56.048 76.2839 55.6475 76.8378 55.4027C77.3917 55.1579 78.0048 55.0793 78.6025 55.1764C79.2002 55.2736 79.7569 55.5424 80.2047 55.95C80.4292 56.1521 80.7074 56.2847 81.0057 56.3319C81.304 56.3792 81.6096 56.3389 81.8855 56.2161C82.1614 56.0933 82.3958 55.8931 82.5603 55.6399C82.7248 55.3866 82.8124 55.0911 82.8125 54.7891V34.8234H83.3906C84.1498 35.493 85.0604 35.9681 86.0438 36.208C87.0273 36.4478 88.0543 36.4451 89.0365 36.2003C90.0187 35.9554 90.9268 35.4756 91.6826 34.8021C92.4383 34.1286 93.0192 33.2817 93.3752 32.3341C93.7313 31.3865 93.8518 30.3665 93.7265 29.362C93.6011 28.3575 93.2337 27.3985 92.6557 26.5674C92.0777 25.7364 91.3066 25.0581 90.4085 24.591C89.5104 24.1239 88.5123 23.882 87.5 23.8859ZM78.125 52.0109C76.4674 52.0109 74.8777 52.6694 73.7056 53.8415C72.5335 55.0136 71.875 56.6033 71.875 58.2609C71.875 59.9185 72.5335 61.5083 73.7056 62.6804C74.8777 63.8525 76.4674 64.5109 78.125 64.5109C78.6524 64.5111 79.1777 64.4429 79.6875 64.3078V70.7609H70.3125C69.8981 70.7609 69.5007 70.9256 69.2076 71.2186C68.9146 71.5116 68.75 71.909 68.75 72.3234V75.1016C68.7499 75.3204 68.7957 75.5368 68.8845 75.7368C68.9733 75.9368 69.1032 76.1159 69.2656 76.2625C69.594 76.5514 69.8572 76.9069 70.0377 77.3054C70.2182 77.7038 70.3118 78.136 70.3125 78.5734C70.3125 79.4022 69.9833 80.1971 69.3972 80.7832C68.8112 81.3692 68.0163 81.6984 67.1875 81.6984C66.3587 81.6984 65.5638 81.3692 64.9778 80.7832C64.3917 80.1971 64.0625 79.4022 64.0625 78.5734C64.0632 78.136 64.1568 77.7038 64.3373 77.3054C64.5178 76.9069 64.781 76.5514 65.1094 76.2625C65.2718 76.1159 65.4017 75.9368 65.4905 75.7368C65.5793 75.5368 65.6251 75.3204 65.625 75.1016V72.3234C65.625 71.909 65.4604 71.5116 65.1674 71.2186C64.8743 70.9256 64.4769 70.7609 64.0625 70.7609H54.6875V64.3078C55.1973 64.4429 55.7226 64.5111 56.25 64.5109C57.9076 64.5109 59.4973 63.8525 60.6694 62.6804C61.8415 61.5083 62.5 59.9185 62.5 58.2609C62.5 56.6033 61.8415 55.0136 60.6694 53.8415C59.4973 52.6694 57.9076 52.0109 56.25 52.0109C55.7226 52.0107 55.1973 52.079 54.6875 52.2141V45.7609H63.7156C64.0176 45.7609 64.3132 45.6733 64.5664 45.5087C64.8197 45.3442 65.0198 45.1098 65.1427 44.8339C65.2655 44.558 65.3057 44.2524 65.2585 43.9541C65.2113 43.6558 65.0786 43.3776 64.8766 43.1531C64.4689 42.7053 64.2002 42.1487 64.103 41.5509C64.0058 40.9532 64.0844 40.3401 64.3292 39.7862C64.574 39.2323 64.9745 38.7615 65.4819 38.431C65.9894 38.1005 66.5819 37.9245 67.1875 37.9245C67.7931 37.9245 68.3856 38.1005 68.8931 38.431C69.4005 38.7615 69.801 39.2323 70.0458 39.7862C70.2906 40.3401 70.3692 40.9532 70.272 41.5509C70.1748 42.1487 69.9061 42.7053 69.4984 43.1531C69.2964 43.3776 69.1637 43.6558 69.1165 43.9541C69.0693 44.2524 69.1095 44.558 69.2323 44.8339C69.3552 45.1098 69.5553 45.3442 69.8086 45.5087C70.0618 45.6733 70.3574 45.7609 70.6594 45.7609H79.6875V52.2141C79.1777 52.079 78.6524 52.0107 78.125 52.0109ZM87.5 33.2609C87.0626 33.2603 86.6303 33.1666 86.2319 32.9861C85.8335 32.8056 85.478 32.5424 85.1891 32.2141C85.0424 32.0516 84.8633 31.9218 84.6634 31.833C84.4634 31.7441 84.247 31.6983 84.0281 31.6984H81.25C80.8356 31.6984 80.4382 31.8631 80.1451 32.1561C79.8521 32.4491 79.6875 32.8465 79.6875 33.2609V42.6359H73.2344C73.3694 42.1261 73.4377 41.6009 73.4375 41.0734C73.4375 39.4158 72.779 37.8261 71.6069 36.654C70.4348 35.4819 68.8451 34.8234 67.1875 34.8234C65.5299 34.8234 63.9402 35.4819 62.7681 36.654C61.596 37.8261 60.9375 39.4158 60.9375 41.0734C60.9373 41.6009 61.0056 42.1261 61.1406 42.6359H54.6875V33.6078C54.6874 33.3058 54.5998 33.0103 54.4353 32.757C54.2708 32.5038 54.0364 32.3036 53.7605 32.1808C53.4846 32.058 53.179 32.0177 52.8807 32.0649C52.5824 32.1122 52.3042 32.2448 52.0797 32.4469C51.6319 32.8545 51.0752 33.1233 50.4775 33.2205C49.8798 33.3176 49.2667 33.239 48.7128 32.9942C48.1589 32.7494 47.6881 32.3489 47.3575 31.8415C47.027 31.3341 46.8511 30.7415 46.8511 30.1359C46.8511 29.5304 47.027 28.9378 47.3575 28.4304C47.6881 27.923 48.1589 27.5225 48.7128 27.2777C49.2667 27.0329 49.8798 26.9543 50.4775 27.0514C51.0752 27.1486 51.6319 27.4174 52.0797 27.825C52.3042 28.027 52.5824 28.1597 52.8807 28.2069C53.179 28.2542 53.4846 28.2139 53.7605 28.0911C54.0364 27.9683 54.2708 27.7681 54.4353 27.5149C54.5998 27.2616 54.6874 26.9661 54.6875 26.6641V17.6359H61.1406C61.0056 18.1458 60.9373 18.671 60.9375 19.1984C60.9375 20.856 61.596 22.4458 62.7681 23.6179C63.9402 24.79 65.5299 25.4484 67.1875 25.4484C68.8451 25.4484 70.4348 24.79 71.6069 23.6179C72.779 22.4458 73.4375 20.856 73.4375 19.1984C73.4377 18.671 73.3694 18.1458 73.2344 17.6359H79.6875V27.0109C79.6875 27.4253 79.8521 27.8228 80.1451 28.1158C80.4382 28.4088 80.8356 28.5734 81.25 28.5734H84.0281C84.247 28.5736 84.4634 28.5278 84.6634 28.4389C84.8633 28.3501 85.0424 28.2203 85.1891 28.0578C85.478 27.7294 85.8335 27.4663 86.2319 27.2858C86.6303 27.1053 87.0626 27.0116 87.5 27.0109C88.3288 27.0109 89.1237 27.3402 89.7097 27.9262C90.2958 28.5123 90.625 29.3071 90.625 30.1359C90.625 30.9647 90.2958 31.7596 89.7097 32.3456C89.1237 32.9317 88.3288 33.2609 87.5 33.2609Z" fill="black"/>
</svg>
