<svg width="32" height="32" viewBox="0 0 32 32" fill="none" xmlns="http://www.w3.org/2000/svg">
<path d="M19.3332 14L15.9998 17.3333M22.6665 10.6667L23.9998 9.33333M18.6665 4H13.3332M6.6665 17.3333C6.6665 18.559 6.90792 19.7727 7.37696 20.905C7.84601 22.0374 8.53349 23.0663 9.40017 23.933C10.2669 24.7997 11.2958 25.4872 12.4281 25.9562C13.5605 26.4253 14.7742 26.6667 15.9998 26.6667C17.2255 26.6667 18.4392 26.4253 19.5716 25.9562C20.7039 25.4872 21.7328 24.7997 22.5995 23.933C23.4662 23.0663 24.1537 22.0374 24.6227 20.905C25.0918 19.7727 25.3332 18.559 25.3332 17.3333C25.3332 14.858 24.3498 12.484 22.5995 10.7337C20.8492 8.98333 18.4752 8 15.9998 8C13.5245 8 11.1505 8.98333 9.40017 10.7337C7.64983 12.484 6.6665 14.858 6.6665 17.3333Z" stroke="#FF0000" stroke-width="2" stroke-linecap="round" stroke-linejoin="round"/>
</svg>
