<svg width="64" height="64" viewBox="0 0 64 64" fill="none" xmlns="http://www.w3.org/2000/svg">
<path d="M57.4753 10.6667C57.2329 10.6417 56.9887 10.6417 56.7464 10.6667H6.96859C6.64956 10.6716 6.33264 10.7194 6.02637 10.8089L31.7153 36.3911L57.4753 10.6667Z" fill="white"/>
<path d="M60.1062 13.1377L34.2218 38.9155C33.5556 39.5777 32.6544 39.9494 31.7151 39.9494C30.7758 39.9494 29.8746 39.5777 29.2084 38.9155L3.55511 13.3333C3.47625 13.6231 3.43443 13.9218 3.43066 14.2221V49.7777C3.43066 50.7207 3.80527 51.6251 4.47206 52.2919C5.13886 52.9586 6.04323 53.3333 6.98622 53.3333H56.764C57.707 53.3333 58.6114 52.9586 59.2782 52.2919C59.945 51.6251 60.3196 50.7207 60.3196 49.7777V14.2221C60.3054 13.8517 60.2334 13.4858 60.1062 13.1377ZM9.42178 49.7777H6.95066V47.2355L19.8751 34.4177L22.3818 36.9244L9.42178 49.7777ZM56.7284 49.7777H54.2396L41.2796 36.9244L43.7862 34.4177L56.7107 47.2355L56.7284 49.7777Z" fill="white"/>
</svg>
