<svg width="100" height="101" viewBox="0 0 100 101" fill="none" xmlns="http://www.w3.org/2000/svg">
<g clip-path="url(#clip0_2148_252)">
<path d="M18.292 99.2336V99.4836H18.542H22.7087H22.9587V99.2336V78.6086C22.9587 74.4102 22.1193 70.2095 20.4382 66.4261C19.0854 63.2001 17.2145 58.5224 15.682 53.5351C14.1479 48.5426 12.9587 43.2585 12.9587 38.8169C12.9587 33.1313 14.7698 24.8545 20.0165 18.0054C25.2544 11.1677 33.9302 5.73356 47.7087 5.73356C58.2533 5.73356 65.7906 10.2791 70.6962 15.9851C75.6096 21.7001 77.8753 28.5707 77.8753 33.1919V44.4419V44.5454L77.9486 44.6187L78.5735 45.2437L78.5774 45.2474C83.3879 49.8575 85.4786 57.2214 86.3545 61.0669H76.042H75.792V61.3169V79.8586C75.792 80.5538 75.2789 81.0669 74.5837 81.0669H68.9587C64.8671 81.0669 61.6253 84.299 61.6253 88.1919V99.2336V99.4836H61.8753H66.042H66.292V99.2336V88.1919C66.292 86.8836 67.4178 85.7336 68.9587 85.7336H74.5837C77.8467 85.7336 80.4587 83.1216 80.4587 79.8586V65.9419H87.5003C88.603 65.9419 89.7268 65.5011 90.4087 64.5919C91.0565 63.7281 91.5148 62.6145 91.2872 61.4762L91.286 61.471C90.457 57.7403 88.3766 48.7717 82.542 42.6746V33.4002C82.542 27.7123 79.9664 19.6348 74.3054 12.9779C68.6368 6.31207 59.8712 1.06689 47.5003 1.06689C32.1106 1.06689 22.2969 7.24857 16.3377 15.098C10.3871 22.936 8.29199 32.4191 8.29199 39.0252C8.29199 43.8524 9.49768 49.5044 11.0627 54.7992C12.6287 60.0975 14.5595 65.0548 16.0202 68.4979L16.02 68.4979L16.0238 68.506C17.4674 71.5995 18.292 75.1052 18.292 78.6086V99.2336Z" fill="black" stroke="black" stroke-width="0.5"/>
<path d="M46.2503 52.4004C53.6801 52.4004 59.6253 46.4551 59.6253 39.0254C59.6253 31.5957 53.6801 25.6504 46.2503 25.6504C38.8218 25.6504 32.8773 31.5937 32.8753 39.0217C32.6649 46.2513 38.8261 52.4004 46.2503 52.4004ZM46.2503 30.1087C51.1123 30.1087 54.9587 33.9551 54.9587 38.8171C54.9587 43.679 51.1123 47.5254 46.2503 47.5254C41.3884 47.5254 37.542 43.679 37.542 38.8171C37.542 33.9551 41.3884 30.1087 46.2503 30.1087Z" fill="black" stroke="black" stroke-width="0.5"/>
<path d="M31.0693 62.5313L31.2335 62.7037L31.4137 62.5481L35.8709 58.6987C37.0192 59.2725 38.1835 59.8477 39.3515 60.2523L39.96 66.1346L39.9832 66.3589H40.2087H52.0837H52.3091L52.3323 66.1346L52.9408 60.2527C54.1057 59.8541 55.428 59.2868 56.431 58.707L60.8786 62.5481L61.0545 62.7L61.2188 62.5357L69.5521 54.2023L69.7164 54.038L69.5645 53.8621L65.7151 49.4049C66.289 48.2567 66.8641 47.0924 67.2688 45.9244L73.151 45.3159L73.3753 45.2927V45.0672V33.1922V32.9667L73.151 32.9435L67.2691 32.3351C66.8706 31.1701 66.3032 29.8479 65.7234 28.8449L69.5645 24.3973L69.7164 24.2214L69.5521 24.0571L61.2188 15.7238L61.0545 15.5595L60.8786 15.7113L56.4214 19.5607C55.2735 18.9871 54.1095 18.4121 52.9419 18.0075L52.3325 11.7098L52.3106 11.4839H52.0837H40.2087H39.9832L39.96 11.7082L39.3515 17.5901C38.1866 17.9886 36.8643 18.556 35.8614 19.1358L31.4137 15.2947L31.2379 15.1428L31.0735 15.3071L22.7402 23.6404L22.5759 23.8048L22.7278 23.9806L26.5772 28.4378C26.0033 29.5861 25.4282 30.7504 25.0235 31.9184L19.1413 32.5269L18.917 32.5501V32.7756V44.6506V44.876L19.1413 44.8992L25.0232 45.5077C25.4218 46.6726 25.9891 47.9949 26.5689 48.9979L22.7278 53.4455L22.5796 53.6171L22.736 53.7813L31.0693 62.5313ZM28.5619 36.5664L28.7347 36.5526L28.7824 36.3859L29.199 34.9276L29.2011 34.9204L29.2027 34.9131C29.6118 33.0721 30.4316 31.2245 31.4604 29.5778L32.2917 28.3309L32.3958 28.1747L32.2749 28.0312L29.0894 24.2484L31.6815 21.6563L35.4643 24.8418L35.6078 24.9627L35.764 24.8586L37.0109 24.0273C38.6576 22.9985 40.5052 22.1787 42.3462 21.7696L42.3535 21.768L42.3607 21.7659L43.819 21.3493L43.9857 21.3016L43.9995 21.1288L44.3978 16.1506H48.1029L48.5011 21.1288L48.5149 21.3016L48.6816 21.3493L50.14 21.7659L50.1471 21.768L50.1544 21.7696C51.9954 22.1787 53.843 22.9985 55.4897 24.0273L56.7366 24.8586L56.8928 24.9627L57.0364 24.8418L60.8192 21.6563L63.4113 24.2484L60.2258 28.0312L60.1049 28.1747L60.209 28.3309L61.0403 29.5779C62.069 31.2245 62.8888 33.0721 63.2979 34.9131L63.2996 34.9204L63.3016 34.9276L63.7183 36.3859L63.7659 36.5526L63.9387 36.5664L68.917 36.9647V40.6698L63.9387 41.068L63.7659 41.0818L63.7183 41.2485L63.3016 42.7069L63.2996 42.714L63.2979 42.7213C62.8888 44.5623 62.069 46.4099 61.0403 48.0566L60.209 49.3035L60.1049 49.4597L60.2258 49.6033L63.4163 53.392L60.813 56.1813L57.0364 53.001L56.8928 52.8801L56.7366 52.9842L55.4898 53.8154C53.8431 54.8442 51.9955 55.6641 50.1544 56.0732L50.1471 56.0748L50.14 56.0768L48.6816 56.4935L48.5149 56.5411L48.5011 56.714L48.1029 61.6922H44.3978L43.9995 56.714L43.9857 56.5411L43.819 56.4935L42.3607 56.0768L42.3535 56.0748L42.3462 56.0732C40.5041 55.6638 38.6553 54.8432 37.0078 53.8135L37.0079 53.8134L36.9994 53.8085L35.541 52.9752L35.3895 52.8886L35.256 53.001L31.4732 56.1865L28.881 53.5944L32.0666 49.8116L32.1874 49.668L32.0833 49.5119L31.2521 48.265C30.2233 46.6183 29.4035 44.7707 28.9944 42.9297L28.9928 42.9224L28.9907 42.9152L28.574 41.4569L28.5286 41.298L28.3647 41.2775L23.5837 40.6799V36.9647L28.5619 36.5664Z" fill="black" stroke="black" stroke-width="0.5"/>
</g>
<defs>
<clipPath id="clip0_2148_252">
<rect width="100" height="100" fill="white" transform="translate(0 0.275391)"/>
</clipPath>
</defs>
</svg>
