<svg width="100" height="100" viewBox="0 0 100 100" fill="none" xmlns="http://www.w3.org/2000/svg">
<path d="M87.5 49.9999C87.5 42.5794 85.2984 35.3257 81.174 29.157C77.0496 22.9882 71.1877 18.1818 64.3304 15.3461C57.473 12.5104 49.9286 11.7729 42.6519 13.227C35.3752 14.681 28.6935 18.2613 23.4526 23.5145C18.2116 28.7677 14.647 35.4578 13.2099 42.7378C11.7729 50.0179 12.528 57.5606 15.3797 64.4113C18.2314 71.262 23.0515 77.1126 29.2298 81.2226C35.4082 85.3326 42.667 87.5172 50.0875 87.4999M15 37.4999H85M15 62.4999H52.0833" stroke="black" stroke-width="6" stroke-linecap="round" stroke-linejoin="round"/>
<path d="M47.9166 12.5C40.8972 23.7484 37.1758 36.7411 37.1758 50C37.1758 63.2589 40.8972 76.2516 47.9166 87.5M52.0833 12.5C60.1386 25.4084 63.8232 40.5676 62.5916 55.7333M79.1708 87.5C76.9606 87.5 74.841 86.622 73.2782 85.0592C71.7154 83.4964 70.8374 81.3768 70.8374 79.1667C70.8374 76.9565 71.7154 74.8369 73.2782 73.2741C74.841 71.7113 76.9606 70.8333 79.1708 70.8333M79.1708 87.5C81.3809 87.5 83.5005 86.622 85.0633 85.0592C86.6261 83.4964 87.5041 81.3768 87.5041 79.1667C87.5041 76.9565 86.6261 74.8369 85.0633 73.2741C83.5005 71.7113 81.3809 70.8333 79.1708 70.8333M79.1708 87.5V93.75M79.1708 70.8333V64.5833M91.7999 71.875L86.3874 75M71.9583 83.3333L66.5416 86.4583M66.5416 71.875L71.9583 75M86.3874 83.3333L91.8041 86.4583" stroke="black" stroke-width="6" stroke-linecap="round" stroke-linejoin="round"/>
</svg>
