<svg width="299" height="252" viewBox="0 0 299 252" fill="none" xmlns="http://www.w3.org/2000/svg">
<g clip-path="url(#clip0_2344_1144)">
<path opacity="0.19" d="M63.2901 232.981C63.823 234.382 62.7233 235.936 61.3783 236.602C60.0334 237.269 58.4769 237.328 57.022 237.704C54.7592 238.287 52.7671 239.612 50.5762 240.427C47.569 241.545 44.2954 241.667 41.0852 241.777C31.3997 242.111 21.0628 242.275 12.8322 237.168C12.5224 237.016 12.2713 236.767 12.1174 236.459C12.0309 236.153 12.0626 235.826 12.2062 235.543C12.8872 233.977 14.8412 233.5 16.533 233.234C24.5014 231.993 32.6601 230.871 40.7299 230.588C44.9256 230.449 61.6998 228.786 63.2901 232.981Z" fill="url(#paint0_linear_2344_1144)"/>
<path opacity="0.18" d="M229.577 233.614C225.91 234.357 222.454 235.881 219.033 237.413L205.308 243.478C212.963 247.589 222.256 245.893 230.952 245.774C231.713 245.774 232.533 245.774 233.138 246.247C233.984 246.91 234.06 248.163 234.589 249.109C235.583 250.898 237.973 251.257 240.015 251.392C258.515 252.595 277.087 252.004 295.473 249.628C296.352 249.514 297.274 249.379 297.985 248.851C300.1 247.277 298.611 243.643 296.217 242.52C293.823 241.397 291.01 241.676 288.468 240.95C285.927 240.224 283.473 237.54 284.662 235.172C274.181 235.377 263.701 235.264 253.22 234.834C245.306 234.496 237.473 232.01 229.577 233.614Z" fill="#1D2741"/>
<path opacity="0.18" d="M280.111 142.381C281.828 124.506 290.545 105.596 281.633 89.4349C279.294 85.2141 275.941 81.5968 272.189 78.2328C267.232 73.7967 261.586 69.7912 256.65 65.3213C247.916 57.4199 242.921 47.9357 236.192 39.2577C233.404 35.5927 230.232 32.235 226.73 29.2417C225.337 28.0683 223.928 26.9132 222.501 25.7764C210.802 16.5286 197.636 8.58924 182.663 3.9801C161.431 -2.54108 136.185 -1.49009 118.261 10.4126C111.806 14.6968 106.579 20.1416 101.537 25.7764C97.4685 30.3223 93.5393 34.9905 89.1914 39.2451C85.3045 43.0776 81.0919 46.5893 76.173 49.4046C69.1689 53.4186 61.1075 55.778 53.6763 59.1505C48.909 61.313 44.3743 63.9534 40.1419 67.0308C34.4611 71.1468 29.3808 76.0306 25.0468 81.5419C15.6447 93.5038 10.3324 107.918 10.6919 122.429C10.7469 124.7 10.933 126.983 11.0049 129.263C11.1439 131.765 10.9978 134.276 10.5693 136.746C9.78258 140.798 7.8497 144.605 5.85338 148.379C3.13804 153.524 0.291589 158.606 0.0209017 164.181C-0.452802 173.78 6.66967 182.002 14.5704 189.029C15.89 190.203 17.235 191.347 18.563 192.457C20.6778 194.229 22.8559 196.002 25.0511 197.754L25.474 198.092C26.6498 199.024 27.8298 199.953 29.0268 200.873C32.0297 203.182 35.1046 205.432 38.2555 207.576C39.6654 208.53 41.0752 209.457 42.485 210.357C45.7798 212.468 49.1592 214.397 52.6358 216.157C61.2259 220.513 70.3997 223.695 80.2714 224.961C107.311 228.338 134.206 216.338 161.478 217.925C179.373 218.964 196.062 225.776 213.403 229.743C230.744 233.711 250.881 234.344 264.863 224.539C277.751 215.519 281.976 199.936 282.01 185.526C282.044 171.116 278.74 156.744 280.111 142.381Z" fill="#68E1FD"/>
<path d="M260.486 25.7766H36.7458C35.2123 25.7744 33.6933 26.0736 32.2757 26.6572C30.858 27.2408 29.5695 28.0974 28.4835 29.178C27.3976 30.2585 26.5356 31.542 25.9466 32.955C25.3577 34.3681 25.0535 35.883 25.0513 37.4134V198.096H272.168V37.4303C272.168 34.3396 270.938 31.3754 268.748 29.1899C266.558 27.0044 263.588 25.7766 260.49 25.7766H260.486Z" fill="#68E1FD"/>
<path opacity="0.47" d="M69.8289 172.138C69.4059 176.54 65.4471 179.773 61.3699 181.158C59.2552 181.875 57.0093 182.276 55.1948 183.585C53.3804 184.893 52.1919 187.54 53.3339 189.494C54.7222 189.488 56.0804 189.898 57.2315 190.673C58.3827 191.448 59.2735 192.55 59.7881 193.837C57.1785 197.8 52.5556 199.966 47.9455 200.59C43.3353 201.215 38.6406 200.481 34.0727 199.721C32.4698 199.459 30.761 199.138 29.6064 197.965C28.4517 196.792 28.1345 195.086 27.8469 193.47C27.8088 193.242 27.7666 193.014 27.7243 192.782H24.9497V39.2452H40.0955V112.265C40.0955 118.221 39.8248 124.227 39.9179 130.162C40.0109 135.809 43.7752 138.671 47.3618 142.778C48.4657 144.044 49.6119 145.386 49.9376 147.053C50.2886 148.822 49.6542 150.696 50.1237 152.431C50.9357 155.444 54.7381 156.584 57.6564 155.732C60.5748 154.879 62.9137 152.684 65.4302 150.937C69.7792 147.926 74.8843 146.188 80.17 145.918C78.3979 153.419 69.6809 158.158 69.4778 165.887C69.4144 167.98 70.0319 170.049 69.8289 172.138Z" fill="url(#paint1_linear_2344_1144)"/>
<path d="M14.2872 178.756C10.4807 172.615 7.81607 165.714 7.05899 158.534C6.59375 154.157 6.79253 149.54 4.81313 145.606C3.63733 143.267 1.72137 141.258 1.12924 138.705C0.0295695 133.935 3.86572 129.575 7.38889 126.169C7.60025 125.916 7.88342 125.734 8.20096 125.645C8.75079 125.544 9.24564 126 9.57977 126.452C11.5972 129.166 11.758 132.783 12.274 136.105C12.828 139.713 14.0123 143.445 16.7657 145.855C19.5191 148.265 23.7613 149.324 25.1189 152.726C26.3243 155.757 24.5945 159.332 25.6815 162.409C26.7684 165.486 30.4862 167.33 31.0445 170.572C31.4167 172.725 30.2578 174.86 30.2916 177.042C30.317 178.705 31.0318 180.271 31.4378 181.888C32.3091 185.357 31.4378 195.517 26.1552 192.546C21.3716 189.865 17.0956 183.285 14.2872 178.756Z" fill="#68E1FD"/>
<path d="M14.2872 178.756C10.4807 172.615 7.81607 165.714 7.05899 158.534C6.59375 154.157 6.79253 149.54 4.81313 145.606C3.63733 143.267 1.72137 141.258 1.12924 138.705C0.0295695 133.935 3.86572 129.575 7.38889 126.169C7.60025 125.916 7.88342 125.734 8.20096 125.645C8.75079 125.544 9.24564 126 9.57977 126.452C11.5972 129.166 11.758 132.783 12.274 136.105C12.828 139.713 14.0123 143.445 16.7657 145.855C19.5191 148.265 23.7613 149.324 25.1189 152.726C26.3243 155.757 24.5945 159.332 25.6815 162.409C26.7684 165.486 30.4862 167.33 31.0445 170.572C31.4167 172.725 30.2578 174.86 30.2916 177.042C30.317 178.705 31.0318 180.271 31.4378 181.888C32.3091 185.357 31.4378 195.517 26.1552 192.546C21.3716 189.865 17.0956 183.285 14.2872 178.756Z" fill="url(#paint2_linear_2344_1144)"/>
<path d="M23.8883 171.779C22.5053 164.697 22.4587 157.293 24.3113 150.312C25.4321 146.053 27.2719 141.807 26.794 137.43C26.5233 134.826 25.4405 132.268 25.7958 129.676C26.4598 124.827 31.5902 122.079 36.0904 120.154C36.3797 119.996 36.709 119.926 37.0378 119.952C37.5919 120.053 37.8837 120.652 38.0402 121.193C38.9665 124.443 37.8414 127.87 37.1393 131.175C36.3822 134.746 36.1665 138.654 37.8837 141.879C39.6009 145.103 43.2002 147.594 43.2636 151.253C43.3186 154.516 40.4341 157.251 40.3622 160.509C40.2903 163.768 43.1114 166.807 42.4769 170.04C42.054 172.184 40.2184 173.771 39.4782 175.823C38.9115 177.389 39.0257 179.106 38.8353 180.761C38.4124 184.315 34.0222 193.521 30.1141 188.865C26.5952 184.661 24.9034 177 23.8883 171.779Z" fill="#68E1FD"/>
<path d="M23.8883 171.779C22.5053 164.697 22.4587 157.293 24.3113 150.312C25.4321 146.053 27.2719 141.807 26.794 137.43C26.5233 134.826 25.4405 132.268 25.7958 129.676C26.4598 124.827 31.5902 122.079 36.0904 120.154C36.3797 119.996 36.709 119.926 37.0378 119.952C37.5919 120.053 37.8837 120.652 38.0402 121.193C38.9665 124.443 37.8414 127.87 37.1393 131.175C36.3822 134.746 36.1665 138.654 37.8837 141.879C39.6009 145.103 43.2002 147.594 43.2636 151.253C43.3186 154.516 40.4341 157.251 40.3622 160.509C40.2903 163.768 43.1114 166.807 42.4769 170.04C42.054 172.184 40.2184 173.771 39.4782 175.823C38.9115 177.389 39.0257 179.106 38.8353 180.761C38.4124 184.315 34.0222 193.521 30.1141 188.865C26.5952 184.661 24.9034 177 23.8883 171.779Z" fill="url(#paint3_linear_2344_1144)"/>
<path d="M33.6413 172.957C37.2787 166.718 42.1299 161.138 48.1189 157.078C51.7731 154.609 55.9477 152.612 58.4938 149.016C60.008 146.88 60.8877 144.247 62.8629 142.529C66.5637 139.317 72.227 140.638 76.8963 142.14C77.2188 142.209 77.5134 142.372 77.7422 142.609C78.0933 143.031 77.9199 143.694 77.6788 144.204C76.2323 147.256 73.1194 149.092 70.4125 151.118C67.4815 153.305 64.7408 156.103 63.9033 159.657C63.0659 163.211 64.1275 167.453 61.7547 170.247C59.64 172.737 55.6685 172.893 53.4607 175.312C51.2529 177.73 51.3713 181.858 48.766 183.876C47.0361 185.214 44.6041 185.201 42.6924 186.256C41.2332 187.063 40.1843 188.426 38.9451 189.545C36.289 191.946 26.9037 195.977 27.039 189.908C27.1532 184.442 30.9556 177.557 33.6413 172.957Z" fill="#68E1FD"/>
<path d="M33.6413 172.957C37.2787 166.718 42.1299 161.138 48.1189 157.078C51.7731 154.609 55.9477 152.612 58.4938 149.016C60.008 146.88 60.8877 144.247 62.8629 142.529C66.5637 139.317 72.227 140.638 76.8963 142.14C77.2188 142.209 77.5134 142.372 77.7422 142.609C78.0933 143.031 77.9199 143.694 77.6788 144.204C76.2323 147.256 73.1194 149.092 70.4125 151.118C67.4815 153.305 64.7408 156.103 63.9033 159.657C63.0659 163.211 64.1275 167.453 61.7548 170.247C59.64 172.737 55.6685 172.893 53.4607 175.312C51.2529 177.73 51.3713 181.858 48.766 183.876C47.0361 185.214 44.6041 185.201 42.6924 186.256C41.2332 187.063 40.1843 188.426 38.9451 189.545C36.289 191.946 26.9037 195.977 27.039 189.908C27.1532 184.442 30.9556 177.557 33.6413 172.957Z" fill="url(#paint4_linear_2344_1144)"/>
<path d="M56.3455 194.901L55.7787 198.096L55.2923 200.877L54.1334 207.58L53.6724 210.362L52.5051 217.068L52.0187 219.846L49.1173 236.51H18.9483L16.0215 219.846L15.5351 217.068L14.3762 210.362L13.8856 207.58L12.6844 200.877L12.2064 198.096L11.6482 194.905C11.5223 194.189 11.5389 193.456 11.6972 192.747C11.8555 192.038 12.1523 191.366 12.5706 190.772C12.989 190.177 13.5206 189.671 14.1352 189.281C14.7498 188.892 15.4354 188.627 16.1526 188.502C16.4696 188.446 16.7908 188.418 17.1127 188.417H50.881C51.6898 188.416 52.4891 188.592 53.2225 188.932C53.956 189.273 54.6057 189.77 55.1259 190.388C55.6461 191.006 56.0241 191.73 56.2334 192.51C56.4426 193.29 56.478 194.106 56.337 194.901H56.3455Z" fill="#68E1FD"/>
<path d="M56.3452 194.901L55.7785 198.096L55.2921 200.877L54.1332 207.58L53.6722 210.362L52.5048 217.068L52.0185 219.846L49.117 236.51H18.948L16.0212 219.846L15.5348 217.068L14.3759 210.362L13.8853 207.58L12.6841 200.877L12.2062 198.096L11.6479 194.905C11.522 194.189 11.5387 193.456 11.697 192.747C11.8553 192.038 12.1521 191.366 12.5704 190.772C12.9887 190.177 13.5204 189.671 14.135 189.281C14.7496 188.892 15.4351 188.627 16.1523 188.502C16.4693 188.446 16.7906 188.418 17.1124 188.417H50.8807C51.6896 188.416 52.4889 188.592 53.2223 188.932C53.9557 189.273 54.6054 189.77 55.1256 190.388C55.6458 191.006 56.0239 191.73 56.2331 192.51C56.4424 193.29 56.4778 194.106 56.3368 194.901H56.3452Z" fill="url(#paint5_linear_2344_1144)"/>
<path d="M272.168 37.4303V39.2453H25.0513V37.4303C25.0513 34.3396 26.2816 31.3754 28.4716 29.1899C30.6616 27.0044 33.6318 25.7766 36.7289 25.7766H260.469C262.003 25.7761 263.521 26.0769 264.938 26.6621C266.355 27.2472 267.643 28.1052 268.728 29.1869C269.813 30.2687 270.673 31.5531 271.261 32.9667C271.848 34.3804 272.151 35.8957 272.151 37.4261L272.168 37.4303Z" fill="url(#paint6_linear_2344_1144)"/>
<path d="M37.541 34.615C38.9822 34.615 40.1506 33.449 40.1506 32.0107C40.1506 30.5725 38.9822 29.4065 37.541 29.4065C36.0998 29.4065 34.9314 30.5725 34.9314 32.0107C34.9314 33.449 36.0998 34.615 37.541 34.615Z" fill="url(#paint7_linear_2344_1144)"/>
<path d="M46.3003 34.615C47.7415 34.615 48.9099 33.449 48.9099 32.0107C48.9099 30.5725 47.7415 29.4065 46.3003 29.4065C44.859 29.4065 43.6907 30.5725 43.6907 32.0107C43.6907 33.449 44.859 34.615 46.3003 34.615Z" fill="url(#paint8_linear_2344_1144)"/>
<path d="M55.0554 34.615C56.4966 34.615 57.665 33.449 57.665 32.0107C57.665 30.5725 56.4966 29.4065 55.0554 29.4065C53.6142 29.4065 52.4458 30.5725 52.4458 32.0107C52.4458 33.449 53.6142 34.615 55.0554 34.615Z" fill="url(#paint9_linear_2344_1144)"/>
<path d="M176.45 95.8254V144.036C176.448 145.67 175.796 147.237 174.638 148.392C173.479 149.547 171.909 150.197 170.271 150.198H121.966C120.328 150.197 118.758 149.547 117.599 148.392C116.441 147.237 115.789 145.67 115.787 144.036V95.8254C115.787 94.191 116.437 92.6236 117.595 91.4679C118.753 90.3122 120.324 89.663 121.962 89.663H170.271C171.906 89.6618 173.474 90.3077 174.633 91.4589C175.791 92.6102 176.445 94.1728 176.45 95.8043V95.8254Z" fill="url(#paint10_linear_2344_1144)"/>
<path d="M151.056 114.182C151.081 115.072 150.864 115.952 150.429 116.729C149.993 117.507 149.355 118.152 148.582 118.597C148.386 118.71 148.224 118.873 148.112 119.07C148.001 119.266 147.944 119.489 147.948 119.715V130.267C147.948 130.657 147.793 131.03 147.517 131.306C147.241 131.581 146.866 131.736 146.476 131.736H145.757C145.366 131.736 144.992 131.581 144.716 131.306C144.44 131.03 144.285 130.657 144.285 130.267V119.715C144.287 119.489 144.229 119.266 144.118 119.069C144.007 118.872 143.846 118.708 143.651 118.592C142.904 118.163 142.284 117.546 141.85 116.804C141.416 116.061 141.185 115.218 141.178 114.359C141.172 113.499 141.391 112.653 141.813 111.904C142.236 111.155 142.847 110.529 143.587 110.088C144.326 109.648 145.168 109.408 146.03 109.393C146.891 109.377 147.741 109.587 148.496 110C149.251 110.414 149.885 111.018 150.334 111.751C150.783 112.485 151.032 113.323 151.056 114.182ZM55.7912 198.096L55.3048 200.877H12.6968L12.2104 198.096H55.7912ZM54.1332 207.58L53.6511 210.362H14.3633L13.8726 207.58H54.1332ZM52.4837 217.069L51.9973 219.846H16.0212L15.5348 217.069H52.4837Z" fill="#68E1FD"/>
<path opacity="0.18" d="M209.026 129.111C207.042 126.338 204.043 124.409 200.85 123.202C200.123 122.927 199.302 122.691 198.592 122.999C198.093 123.274 197.674 123.674 197.378 124.16C195.838 126.27 194.235 128.549 194.087 131.158C193.867 135.125 197.018 139.35 194.997 142.774C194.434 143.727 193.537 144.437 192.882 145.331C191.647 147.02 191.363 149.231 191.528 151.317C191.727 153.819 192.049 157.167 189.68 158.019C188.969 158.227 188.214 158.237 187.498 158.049C185.421 157.627 183.501 156.635 181.466 156.044C179.432 155.453 177.085 155.314 175.317 156.466C175.16 158.72 177.102 160.598 179.144 161.573C181.187 162.548 183.488 162.991 185.362 164.262C188.196 166.178 189.591 169.749 189.502 173.18C189.414 176.612 188.069 179.862 186.351 182.821C185.552 184.197 184.66 185.569 184.33 187.126C183.683 190.233 185.425 193.284 187.096 195.99C187.586 196.779 188.124 197.615 188.978 197.986C189.701 198.231 190.475 198.294 191.228 198.168L220.894 195.635C221.74 195.563 222.725 195.395 223.089 194.631C223.25 194.161 223.25 193.652 223.089 193.183C222.12 189.038 219.071 185.628 217.988 181.508C217.489 179.588 217.434 177.583 217.379 175.599C217.159 167.419 216.884 159.159 215.137 151.118C214.262 147.113 212.105 143.369 211.251 139.464C210.455 135.822 211.547 132.631 209.026 129.111Z" fill="#1D2741"/>
<path d="M162.472 89.663H157.223V82.6268C157.216 79.6883 156.039 76.8731 153.952 74.8004C151.864 72.7277 149.038 71.5673 146.093 71.5746C143.149 71.5819 140.328 72.7562 138.251 74.8392C136.174 76.9222 135.011 79.7432 135.018 82.6817V89.663H129.765V82.4876C129.874 78.2238 131.651 74.1721 134.716 71.1995C137.781 68.2269 141.89 66.5695 146.164 66.5822C150.438 66.5949 154.537 68.2766 157.584 71.2674C160.631 74.2581 162.384 78.3203 162.468 82.5846L162.472 89.663Z" fill="url(#paint11_linear_2344_1144)"/>
<path d="M272.13 230.449L276.558 234.669L270.185 241.026L262.178 241.714C261.942 241.038 261.961 240.299 262.23 239.635C262.499 238.971 263.001 238.427 263.641 238.105C265.114 237.311 266.717 236.788 268.374 236.56L268.201 233.293L272.13 230.449ZM222.911 230.124L223.563 235.45L208.565 242.153C208.565 242.153 206.691 239.262 208.612 236.75C210.532 234.239 215.827 232.475 215.827 232.475L216.762 230.157L222.911 230.124Z" fill="#3F3D56"/>
<path d="M226.731 147.965C226.731 147.965 221.3 151.971 220.729 158.188C220.158 164.405 219.883 166.587 219.883 166.587L210.367 165.819L210.24 171.07C210.24 171.07 222.865 175.675 224.802 174.89C226.739 174.105 229.163 170.639 229.163 170.639L226.731 147.965Z" fill="#68E1FD"/>
<path d="M226.731 147.965C226.731 147.965 221.3 151.971 220.729 158.188C220.158 164.405 219.883 166.587 219.883 166.587L210.367 165.819L210.24 171.07C210.24 171.07 222.865 175.675 224.802 174.89C226.739 174.105 229.163 170.639 229.163 170.639L226.731 147.965Z" fill="url(#paint12_linear_2344_1144)"/>
<path d="M230.385 181.103C230.385 181.103 210.506 197.471 210.346 203.051C210.185 208.631 215.231 230.448 215.231 230.448L222.937 230.406L223.161 207.47C223.161 207.47 239.419 201.806 241.187 198.383C242.955 194.96 246.702 178.262 230.385 181.103Z" fill="#68E1FD"/>
<path d="M230.385 181.103C230.385 181.103 210.506 197.471 210.346 203.051C210.185 208.631 215.231 230.448 215.231 230.448L222.937 230.406L223.161 207.47C223.161 207.47 239.419 201.806 241.187 198.383C242.955 194.96 246.702 178.262 230.385 181.103Z" fill="url(#paint13_linear_2344_1144)"/>
<path d="M230.385 181.103C230.385 181.103 231.599 206.065 239.419 214.135C247.24 222.205 267.254 234.315 267.254 234.315L272.934 230.799L253.719 210.784C253.719 210.784 256.498 188.316 253.212 184.378C249.925 180.44 230.385 181.103 230.385 181.103Z" fill="#68E1FD"/>
<path d="M230.385 181.103C230.385 181.103 231.599 206.065 239.419 214.135C247.239 222.205 267.253 234.315 267.253 234.315L272.934 230.799L253.719 210.784C253.719 210.784 256.498 188.316 253.211 184.378C249.925 180.44 230.385 181.103 230.385 181.103Z" fill="url(#paint14_linear_2344_1144)"/>
<path d="M230.385 181.103L223.592 152.422C223.592 152.422 227.399 141.486 242.485 145.006C257.572 148.527 253.199 184.378 253.199 184.378C253.199 184.378 236.264 189.984 230.385 181.103Z" fill="#68E1FD"/>
<path d="M230.385 181.103L223.592 152.422C223.592 152.422 227.399 141.486 242.485 145.006C257.572 148.527 253.199 184.378 253.199 184.378C253.199 184.378 236.264 189.983 230.385 181.103Z" fill="url(#paint15_linear_2344_1144)"/>
<path d="M241.974 149.409C241.974 149.409 241.069 144.635 245.924 145.91C250.779 147.184 258.338 163.637 258.058 165.925C257.779 168.212 234.158 169.154 234.158 169.154L233.595 163.667L246.013 161.594C246.013 161.594 241.453 153.803 241.974 149.409Z" fill="#68E1FD"/>
<path d="M241.974 149.409C241.974 149.409 241.069 144.635 245.924 145.91C250.779 147.184 258.338 163.637 258.058 165.925C257.779 168.212 234.158 169.154 234.158 169.154L233.595 163.667L246.013 161.594C246.013 161.594 241.453 153.803 241.974 149.409Z" fill="url(#paint16_linear_2344_1144)"/>
<path d="M239.656 139.228C239.074 140.429 238.083 141.385 236.86 141.925C236.655 141.995 236.456 142.081 236.264 142.183C236.178 142.237 236.1 142.302 236.031 142.377C235.608 142.85 235.904 143.55 236.031 144.158C236.268 145.542 235.465 146.961 234.306 147.754C233.655 148.171 232.941 148.48 232.191 148.67C231.138 148.944 230.004 149.008 229.205 148.632C227.936 148.037 228.063 146.1 227.784 144.914C226.862 141.064 226.054 137.118 226.473 133.137C226.697 131.027 227.289 128.874 228.562 127.161C229.835 125.447 231.861 124.206 234.001 124.244C236.141 124.282 238.171 125.629 239.698 127.199C240.232 127.723 240.683 128.325 241.035 128.984C242.025 130.964 241.5 133.332 240.95 135.476C240.67 136.774 240.236 138.033 239.656 139.228Z" fill="url(#paint17_linear_2344_1144)"/>
<path d="M241.356 129.892C241.356 129.892 235.012 129.892 231.176 132.12C227.754 134.1 226.811 138.329 226.523 138.257C225.876 138.11 223.766 134.036 224.654 133.137C225.542 132.238 224.84 132.234 224.84 132.234C224.84 132.234 223.821 130.546 224.332 127.515C224.752 125.301 225.326 123.12 226.05 120.986C226.05 120.986 226.316 119.981 230.156 120.986C233.997 121.99 240.472 125.059 240.832 126.304C241.191 127.549 240.895 128.119 240.895 128.119C240.895 128.119 241.948 128.891 241.356 129.892Z" fill="#68E1FD"/>
<path d="M241.356 129.892C241.356 129.892 235.012 129.892 231.176 132.12C227.754 134.1 226.811 138.329 226.523 138.257C225.876 138.11 223.766 134.036 224.654 133.137C225.542 132.238 224.84 132.234 224.84 132.234C224.84 132.234 223.821 130.546 224.332 127.515C224.752 125.301 225.326 123.12 226.05 120.986C226.05 120.986 226.316 119.981 230.156 120.986C233.997 121.99 240.472 125.059 240.832 126.304C241.191 127.549 240.895 128.119 240.895 128.119C240.895 128.119 241.948 128.891 241.356 129.892Z" fill="url(#paint18_linear_2344_1144)"/>
<path d="M231.176 132.103C233.402 132.64 235.663 133.018 237.943 133.234C239.99 133.365 241.466 132.812 241.479 132.715C241.504 132.5 240.815 136.143 240.815 136.143L239.263 136.687C238.664 136.898 238.025 136.973 237.393 136.907L227.712 135.902C227.712 135.902 229.361 132.947 231.176 132.103Z" fill="#68E1FD"/>
<path d="M231.176 132.103C233.402 132.64 235.663 133.018 237.943 133.234C239.99 133.365 241.466 132.812 241.479 132.715C241.504 132.5 240.815 136.143 240.815 136.143L239.263 136.687C238.664 136.898 238.025 136.973 237.393 136.907L227.712 135.902C227.712 135.902 229.361 132.947 231.176 132.103Z" fill="url(#paint19_linear_2344_1144)"/>
<path d="M235.156 133.977C235.434 133.901 235.729 133.91 236.002 134.003C236.188 134.036 236.357 134.133 236.48 134.277C236.55 134.386 236.599 134.508 236.623 134.636C236.649 134.708 236.649 134.787 236.623 134.859C236.588 134.901 236.541 134.932 236.489 134.949C236.437 134.966 236.381 134.969 236.327 134.957C235.823 134.96 235.323 134.864 234.855 134.674C234.475 134.475 234.834 134.091 235.156 133.977ZM239.622 134.184C239.701 134.113 239.795 134.059 239.896 134.025C239.997 133.991 240.104 133.977 240.21 133.986C240.279 133.982 240.348 133.992 240.413 134.016C240.478 134.04 240.537 134.077 240.586 134.125C240.658 134.218 240.713 134.322 240.751 134.433C240.785 134.501 240.8 134.577 240.794 134.653C240.784 134.696 240.761 134.735 240.729 134.765C240.696 134.795 240.656 134.815 240.612 134.821C240.275 134.955 239.907 134.991 239.55 134.927C239.246 134.838 239.419 134.374 239.622 134.184Z" fill="white"/>
<path d="M234.284 147.754C233.633 148.171 232.919 148.48 232.17 148.67C231.54 147.959 231.137 147.078 231.011 146.138C230.887 145.485 230.813 144.825 230.787 144.162C230.709 143.586 230.851 143.001 231.184 142.525C231.405 142.32 231.669 142.17 231.958 142.085C232.246 142 232.55 141.983 232.846 142.035C233.443 142.102 234.018 142.309 234.614 142.373C235.122 142.427 235.731 142.195 236.264 142.166C236.178 142.22 236.1 142.285 236.031 142.36C235.608 142.833 235.904 143.533 236.031 144.141C236.247 145.542 235.443 146.961 234.284 147.754Z" fill="url(#paint20_linear_2344_1144)"/>
<path d="M207.08 163.177C206.835 162.983 206.544 162.856 206.235 162.81C206.08 162.791 205.925 162.829 205.797 162.917C205.669 163.005 205.578 163.136 205.541 163.287C205.54 163.502 205.614 163.71 205.748 163.878L206.319 164.768C206.391 164.861 206.434 164.972 206.442 165.089C206.442 165.384 206.019 165.444 205.719 165.406C203.858 165.169 202.001 164.595 200.144 164.84C200.001 164.844 199.864 164.899 199.759 164.996C199.705 165.076 199.681 165.172 199.689 165.268C199.698 165.364 199.739 165.454 199.806 165.524C199.946 165.658 200.117 165.756 200.305 165.807C201.344 166.187 202.412 166.486 203.498 166.701C203.375 167.005 202.974 167.06 202.652 167.073C201.753 167.106 200.858 167.208 199.975 167.377C199.472 167.47 198.854 167.723 198.85 168.221C198.864 168.387 198.93 168.545 199.039 168.672C199.147 168.799 199.292 168.889 199.455 168.93C199.782 169.007 200.121 169.018 200.453 168.964C201.617 168.866 202.789 168.896 203.946 169.052C202.695 169.196 201.506 169.677 200.508 170.445C200.417 170.509 200.341 170.593 200.288 170.69C200.174 170.935 200.389 171.23 200.647 171.315C200.915 171.369 201.192 171.353 201.451 171.268C202.607 171 203.788 170.848 204.974 170.812C204.259 171.141 203.593 171.567 202.995 172.079C202.813 172.218 202.668 172.399 202.572 172.606C202.523 172.711 202.507 172.828 202.527 172.942C202.546 173.056 202.6 173.161 202.682 173.244C202.79 173.31 202.912 173.35 203.038 173.36C203.165 173.371 203.292 173.351 203.409 173.303C204.818 172.923 206.061 172.011 207.503 171.8C208.256 171.686 209.128 171.733 209.652 171.18C209.876 170.906 210.033 170.584 210.109 170.238C210.422 169.154 211.069 166.862 210.413 165.807C210.155 165.384 209.529 165.038 209.144 164.726C208.484 164.174 207.795 163.657 207.08 163.177ZM230.651 161.446C230.406 161.253 230.115 161.126 229.806 161.079C229.651 161.06 229.496 161.098 229.368 161.186C229.24 161.274 229.149 161.406 229.112 161.556C229.111 161.771 229.185 161.979 229.319 162.147L229.89 163.038C229.962 163.13 230.005 163.242 230.013 163.358C229.992 163.654 229.59 163.713 229.29 163.675C227.429 163.439 225.572 162.86 223.715 163.109C223.573 163.112 223.436 163.166 223.33 163.261C223.275 163.342 223.25 163.439 223.258 163.536C223.267 163.632 223.309 163.723 223.377 163.793C223.517 163.928 223.688 164.025 223.876 164.076C224.915 164.456 225.983 164.755 227.069 164.971C226.946 165.275 226.545 165.325 226.223 165.338C225.324 165.375 224.43 165.478 223.546 165.646C223.043 165.739 222.425 165.988 222.421 166.49C222.435 166.657 222.501 166.814 222.61 166.941C222.718 167.069 222.863 167.159 223.026 167.199C223.353 167.276 223.692 167.287 224.024 167.233C225.188 167.136 226.36 167.166 227.517 167.322C226.267 167.465 225.079 167.947 224.083 168.715C223.991 168.777 223.914 168.859 223.859 168.955C223.841 169.02 223.836 169.087 223.844 169.153C223.852 169.219 223.873 169.283 223.906 169.341C223.939 169.399 223.984 169.45 224.036 169.491C224.089 169.532 224.15 169.562 224.214 169.58C224.481 169.638 224.758 169.623 225.018 169.538C226.174 169.268 227.354 169.115 228.541 169.082C227.826 169.411 227.16 169.837 226.562 170.348C226.38 170.488 226.235 170.669 226.139 170.876C226.091 170.981 226.075 171.098 226.095 171.211C226.115 171.325 226.168 171.43 226.249 171.513C226.357 171.58 226.48 171.62 226.607 171.63C226.734 171.64 226.862 171.62 226.98 171.572C228.384 171.192 229.628 170.281 231.07 170.07C231.823 169.956 232.694 170.002 233.219 169.449C233.443 169.176 233.599 168.853 233.676 168.508C233.993 167.423 234.636 165.131 233.98 164.072C233.722 163.65 233.096 163.308 232.711 162.995C232.052 162.444 231.365 161.926 230.651 161.446Z" fill="#68E1FD"/>
<path d="M207.08 163.177C206.835 162.983 206.544 162.857 206.235 162.81C206.08 162.791 205.925 162.829 205.797 162.917C205.669 163.005 205.578 163.136 205.541 163.287C205.54 163.502 205.614 163.71 205.748 163.878L206.319 164.768C206.391 164.861 206.434 164.972 206.442 165.089C206.442 165.385 206.019 165.444 205.719 165.406C203.858 165.169 202.001 164.595 200.144 164.84C200.001 164.844 199.864 164.899 199.759 164.996C199.705 165.076 199.681 165.172 199.689 165.268C199.698 165.364 199.739 165.454 199.806 165.524C199.946 165.658 200.117 165.756 200.305 165.807C201.344 166.187 202.412 166.486 203.498 166.701C203.375 167.005 202.974 167.06 202.652 167.073C201.753 167.106 200.858 167.208 199.975 167.377C199.472 167.47 198.854 167.723 198.85 168.221C198.864 168.387 198.93 168.545 199.039 168.672C199.147 168.799 199.292 168.889 199.455 168.93C199.782 169.007 200.121 169.018 200.453 168.964C201.617 168.867 202.789 168.896 203.946 169.052C202.695 169.196 201.506 169.677 200.508 170.445C200.416 170.509 200.341 170.593 200.288 170.69C200.174 170.935 200.389 171.23 200.647 171.315C200.915 171.369 201.192 171.353 201.451 171.268C202.607 171 203.788 170.848 204.974 170.812C204.259 171.141 203.593 171.568 202.995 172.079C202.813 172.218 202.668 172.399 202.572 172.606C202.523 172.711 202.507 172.828 202.526 172.942C202.546 173.056 202.6 173.161 202.682 173.244C202.79 173.31 202.912 173.35 203.038 173.36C203.165 173.371 203.292 173.351 203.409 173.303C204.818 172.923 206.061 172.011 207.503 171.8C208.256 171.686 209.128 171.733 209.652 171.18C209.876 170.906 210.033 170.584 210.109 170.238C210.422 169.154 211.069 166.862 210.413 165.807C210.155 165.385 209.529 165.038 209.144 164.726C208.484 164.174 207.795 163.657 207.08 163.177Z" fill="url(#paint21_linear_2344_1144)"/>
<path d="M230.651 161.446C230.406 161.253 230.115 161.126 229.805 161.079C229.651 161.06 229.496 161.098 229.368 161.186C229.24 161.274 229.149 161.406 229.112 161.556C229.111 161.771 229.184 161.979 229.319 162.147L229.89 163.038C229.962 163.13 230.004 163.242 230.013 163.358C229.991 163.654 229.59 163.713 229.289 163.675C227.428 163.439 225.572 162.86 223.715 163.109C223.572 163.112 223.436 163.166 223.33 163.261C223.275 163.342 223.25 163.439 223.258 163.536C223.267 163.632 223.309 163.723 223.377 163.793C223.516 163.928 223.688 164.025 223.876 164.076C224.915 164.456 225.983 164.755 227.069 164.971C226.946 165.275 226.544 165.325 226.223 165.338C225.324 165.375 224.429 165.478 223.546 165.646C223.042 165.739 222.425 165.988 222.421 166.49C222.435 166.657 222.501 166.814 222.609 166.941C222.718 167.069 222.863 167.159 223.025 167.199C223.353 167.276 223.692 167.287 224.024 167.233C225.188 167.136 226.359 167.166 227.517 167.322C226.267 167.465 225.079 167.947 224.083 168.715C223.99 168.777 223.914 168.859 223.859 168.955C223.841 169.02 223.836 169.087 223.844 169.153C223.852 169.219 223.873 169.283 223.906 169.341C223.939 169.399 223.983 169.45 224.036 169.491C224.089 169.532 224.149 169.562 224.214 169.58C224.481 169.638 224.758 169.623 225.018 169.538C226.174 169.268 227.354 169.115 228.541 169.082C227.826 169.411 227.159 169.837 226.561 170.348C226.38 170.488 226.235 170.669 226.138 170.876C226.09 170.981 226.075 171.098 226.095 171.211C226.114 171.325 226.168 171.43 226.248 171.513C226.357 171.58 226.48 171.62 226.607 171.63C226.734 171.64 226.862 171.62 226.98 171.572C228.384 171.192 229.628 170.281 231.07 170.07C231.823 169.956 232.694 170.002 233.219 169.449C233.443 169.176 233.599 168.853 233.675 168.508C233.993 167.423 234.635 165.131 233.98 164.072C233.722 163.65 233.096 163.308 232.711 162.995C232.052 162.444 231.365 161.926 230.651 161.446Z" fill="url(#paint22_linear_2344_1144)"/>
</g>
<defs>
<linearGradient id="paint0_linear_2344_1144" x1="12.0709" y1="236.033" x2="63.4254" y2="236.033" gradientUnits="userSpaceOnUse">
<stop stop-color="#183866"/>
<stop offset="1" stop-color="#1A7FC1"/>
</linearGradient>
<linearGradient id="paint1_linear_2344_1144" x1="115.376" y1="116.326" x2="-205.411" y2="131.181" gradientUnits="userSpaceOnUse">
<stop stop-opacity="0"/>
<stop offset="0.97" stop-color="#0C0C11"/>
<stop offset="0.98" stop-color="#312F43"/>
<stop offset="0.99" stop-color="#3F3D56"/>
</linearGradient>
<linearGradient id="paint2_linear_2344_1144" x1="-5.01622" y1="162.966" x2="140.282" y2="140.29" gradientUnits="userSpaceOnUse">
<stop stop-opacity="0"/>
<stop offset="0.97" stop-color="#0C0C11"/>
<stop offset="0.98" stop-color="#312F43"/>
<stop offset="0.99" stop-color="#3F3D56"/>
</linearGradient>
<linearGradient id="paint3_linear_2344_1144" x1="9.07238" y1="156.588" x2="111.725" y2="150.396" gradientUnits="userSpaceOnUse">
<stop stop-opacity="0"/>
<stop offset="0.29" stop-opacity="0.29"/>
<stop offset="0.97" stop-color="#0C0C11"/>
<stop offset="0.98" stop-color="#312F43"/>
<stop offset="0.99" stop-color="#3F3D56"/>
</linearGradient>
<linearGradient id="paint4_linear_2344_1144" x1="89.9613" y1="218.85" x2="35.3581" y2="143.089" gradientUnits="userSpaceOnUse">
<stop stop-opacity="0"/>
<stop offset="0.84" stop-opacity="0.66"/>
<stop offset="0.97"/>
</linearGradient>
<linearGradient id="paint5_linear_2344_1144" x1="68.1667" y1="209.69" x2="1.99366" y2="214.929" gradientUnits="userSpaceOnUse">
<stop stop-opacity="0"/>
<stop offset="0.87" stop-opacity="0.66"/>
<stop offset="1"/>
</linearGradient>
<linearGradient id="paint6_linear_2344_1144" x1="148.037" y1="-9.75849" x2="151.533" y2="284.602" gradientUnits="userSpaceOnUse">
<stop stop-opacity="0"/>
<stop offset="0.5" stop-opacity="0.38"/>
<stop offset="0.97" stop-color="#0C0C11"/>
<stop offset="0.98" stop-color="#312F43"/>
<stop offset="0.99" stop-color="#3F3D56"/>
</linearGradient>
<linearGradient id="paint7_linear_2344_1144" x1="38.6407" y1="25.0211" x2="36.7829" y2="36.8321" gradientUnits="userSpaceOnUse">
<stop stop-color="#183866"/>
<stop offset="1" stop-color="#1A7FC1"/>
</linearGradient>
<linearGradient id="paint8_linear_2344_1144" x1="47.3999" y1="25.0253" x2="45.5422" y2="36.8363" gradientUnits="userSpaceOnUse">
<stop stop-color="#183866"/>
<stop offset="1" stop-color="#1A7FC1"/>
</linearGradient>
<linearGradient id="paint9_linear_2344_1144" x1="56.1593" y1="25.0295" x2="54.3015" y2="36.8405" gradientUnits="userSpaceOnUse">
<stop stop-color="#183866"/>
<stop offset="1" stop-color="#1A7FC1"/>
</linearGradient>
<linearGradient id="paint10_linear_2344_1144" x1="160.387" y1="29.5205" x2="136.345" y2="182.477" gradientUnits="userSpaceOnUse">
<stop offset="0.01"/>
<stop offset="0.99" stop-opacity="0"/>
</linearGradient>
<linearGradient id="paint11_linear_2344_1144" x1="146.467" y1="63.9413" x2="145.907" y2="99.8352" gradientUnits="userSpaceOnUse">
<stop offset="0.01"/>
<stop offset="0.99" stop-opacity="0"/>
</linearGradient>
<linearGradient id="paint12_linear_2344_1144" x1="214.867" y1="156.014" x2="266.128" y2="205.837" gradientUnits="userSpaceOnUse">
<stop offset="0.01"/>
<stop offset="0.15" stop-opacity="0.52"/>
<stop offset="0.99" stop-opacity="0"/>
</linearGradient>
<linearGradient id="paint13_linear_2344_1144" x1="230.118" y1="208.699" x2="170.855" y2="158.347" gradientUnits="userSpaceOnUse">
<stop offset="0.01"/>
<stop offset="0.16" stop-opacity="0.52"/>
<stop offset="1" stop-opacity="0"/>
</linearGradient>
<linearGradient id="paint14_linear_2344_1144" x1="232.563" y1="211.835" x2="321.846" y2="189.081" gradientUnits="userSpaceOnUse">
<stop offset="0.01"/>
<stop offset="0.15" stop-opacity="0.52"/>
<stop offset="0.99" stop-opacity="0"/>
</linearGradient>
<linearGradient id="paint15_linear_2344_1144" x1="225.728" y1="175.261" x2="294.564" y2="130.569" gradientUnits="userSpaceOnUse">
<stop offset="0.01"/>
<stop offset="0.15" stop-opacity="0.52"/>
<stop offset="0.99" stop-opacity="0"/>
</linearGradient>
<linearGradient id="paint16_linear_2344_1144" x1="234.221" y1="155.829" x2="295.888" y2="173.928" gradientUnits="userSpaceOnUse">
<stop offset="0.01"/>
<stop offset="0.15" stop-opacity="0.52"/>
<stop offset="0.99" stop-opacity="0"/>
</linearGradient>
<linearGradient id="paint17_linear_2344_1144" x1="226.207" y1="136.291" x2="240.566" y2="140" gradientUnits="userSpaceOnUse">
<stop stop-color="#ECC4D7"/>
<stop offset="0.42" stop-color="#EFD4D1"/>
<stop offset="1" stop-color="#F2EAC9"/>
</linearGradient>
<linearGradient id="paint18_linear_2344_1144" x1="225.064" y1="129.997" x2="272.381" y2="112.295" gradientUnits="userSpaceOnUse">
<stop offset="0.01"/>
<stop offset="0.03" stop-opacity="0.93"/>
<stop offset="0.51" stop-opacity="0.05"/>
<stop offset="0.58" stop-opacity="0.03"/>
<stop offset="0.99" stop-opacity="0"/>
</linearGradient>
<linearGradient id="paint19_linear_2344_1144" x1="229.514" y1="134.855" x2="261.869" y2="132.681" gradientUnits="userSpaceOnUse">
<stop offset="0.01"/>
<stop offset="0.15" stop-opacity="0.52"/>
<stop offset="0.99" stop-opacity="0"/>
</linearGradient>
<linearGradient id="paint20_linear_2344_1144" x1="229.981" y1="143.174" x2="245.449" y2="155.249" gradientUnits="userSpaceOnUse">
<stop stop-color="#ECC4D7"/>
<stop offset="0.42" stop-color="#EFD4D1"/>
<stop offset="1" stop-color="#F2EAC9"/>
</linearGradient>
<linearGradient id="paint21_linear_2344_1144" x1="205" y1="160.564" x2="201.651" y2="266.634" gradientUnits="userSpaceOnUse">
<stop offset="0.01"/>
<stop offset="0.15" stop-opacity="0.52"/>
<stop offset="0.99" stop-opacity="0"/>
</linearGradient>
<linearGradient id="paint22_linear_2344_1144" x1="228.507" y1="160.809" x2="225.158" y2="266.879" gradientUnits="userSpaceOnUse">
<stop offset="0.01"/>
<stop offset="0.15" stop-opacity="0.52"/>
<stop offset="0.99" stop-opacity="0"/>
</linearGradient>
<clipPath id="clip0_2344_1144">
<rect width="299" height="252" fill="white"/>
</clipPath>
</defs>
</svg>
