<svg width="138" height="18" viewBox="0 0 138 18" fill="none" xmlns="http://www.w3.org/2000/svg">
<path d="M13.408 11.72L15.496 13.712C13.48 15.728 10.744 17.024 8.056 17.024C3.496 17.024 0.712 13.328 1.84 8.768C2.992 4.232 7.624 0.511999 12.16 0.511999C14.752 0.511999 16.768 1.712 17.824 3.584L14.728 5.576C14.104 4.472 12.88 3.776 11.344 3.776C8.608 3.776 5.8 6.008 5.104 8.768C4.432 11.528 6.112 13.76 8.872 13.76C10.504 13.76 12.184 12.968 13.408 11.72ZM23.5242 17.072C18.9882 17.072 16.2042 13.376 17.3322 8.816C18.4602 4.28 23.0922 0.559999 27.6522 0.559999C32.1882 0.559999 34.9722 4.28 33.8442 8.816C32.7162 13.376 28.0842 17.072 23.5242 17.072ZM26.8362 3.824C24.0762 3.824 21.2922 6.056 20.5962 8.816C19.9002 11.576 21.5802 13.808 24.3402 13.808C27.1002 13.808 29.9082 11.576 30.5802 8.816C31.2762 6.056 29.5962 3.824 26.8362 3.824ZM43.6769 0.655999C47.8049 0.991999 50.2769 4.448 49.2209 8.768C48.0929 13.256 43.6049 16.856 39.1409 16.976V17H33.5969L37.6769 0.631999H42.9809C43.2209 0.631999 43.4369 0.631999 43.6769 0.655999ZM37.6769 13.736H39.7169C42.4769 13.736 45.2609 11.528 45.9569 8.768C46.6289 6.008 44.9249 3.872 42.1649 3.872H40.1249L37.6769 13.736ZM53.0284 0.607999H63.7324L62.9164 3.872H52.2124L53.0284 0.607999ZM51.5884 6.392H62.2924L61.4764 9.656H54.0364L53.0284 13.736H60.4684L59.6524 17H48.9484L51.5884 6.392Z" fill="white"/>
<path d="M72.3601 6.416H79.6321L78.0721 12.68C76.9681 14.072 75.5521 15.224 73.9921 15.992C72.6241 16.64 71.1841 17.024 69.7201 17.024C65.1601 17.024 62.3761 13.328 63.5281 8.768C64.6561 4.232 69.2881 0.511999 73.8481 0.511999C76.0081 0.511999 77.7841 1.376 78.9121 2.744L75.7921 4.808C75.0961 4.16 74.1601 3.776 73.0321 3.776C70.2721 3.776 67.4641 6.008 66.7921 8.768C66.0961 11.528 67.7761 13.76 70.5361 13.76C72.1681 13.76 73.8241 12.968 75.0481 11.744L75.5521 9.68H71.5441L72.3601 6.416ZM92.1284 0.607999H95.3684L92.8484 10.736C91.9844 14.192 88.5044 16.976 85.0484 16.976C81.5924 16.976 79.5044 14.192 80.3444 10.736L82.8884 0.607999H86.1524L83.6084 10.736C83.2004 12.392 84.2084 13.712 85.8644 13.712C87.5204 13.712 89.1764 12.392 89.5844 10.736L92.1284 0.607999ZM102.074 0.607999L104.81 17H101.282L99.9618 9.08L94.6818 17H91.1538L102.074 0.607999ZM115.106 16.976L113.378 11.624L106.37 17L110.45 0.607999H119.738C121.514 0.607999 122.594 2.048 122.138 3.824C121.922 4.688 121.346 5.528 120.554 6.128L116.402 9.32L118.874 16.976H115.106ZM112.874 3.872L111.506 9.44L118.154 4.352C118.226 4.304 118.274 4.232 118.298 4.16C118.322 4.016 118.25 3.872 118.082 3.872H112.874ZM130.724 0.655999C134.852 0.991999 137.324 4.448 136.268 8.768C135.14 13.256 130.652 16.856 126.188 16.976V17H120.644L124.724 0.631999H130.028C130.268 0.631999 130.484 0.631999 130.724 0.655999ZM124.724 13.736H126.764C129.524 13.736 132.308 11.528 133.004 8.768C133.676 6.008 131.972 3.872 129.212 3.872H127.172L124.724 13.736Z" fill="url(#paint0_linear_22_251)"/>
<defs>
<linearGradient id="paint0_linear_22_251" x1="-2" y1="9" x2="135" y2="9" gradientUnits="userSpaceOnUse">
<stop offset="0.750449" stop-color="#D3BF76"/>
<stop offset="1" stop-color="#6D633D"/>
</linearGradient>
</defs>
</svg>
