<svg width="100" height="101" viewBox="0 0 100 101" fill="none" xmlns="http://www.w3.org/2000/svg">
<path d="M50 53.6162C36.2156 53.6162 25 42.4006 25 28.6162C25 14.8318 36.2156 3.61621 50 3.61621C63.7844 3.61621 75 14.8318 75 28.6162C75 42.4006 63.7844 53.6162 50 53.6162ZM50 9.86621C39.6594 9.86621 31.25 18.2756 31.25 28.6162C31.25 38.9568 39.6594 47.3662 50 47.3662C60.3406 47.3662 68.75 38.9568 68.75 28.6162C68.75 18.2756 60.3406 9.86621 50 9.86621Z" fill="black"/>
<path d="M51.25 41.7412H48.75C46.9984 41.7343 45.2955 41.1643 43.8927 40.1154C42.4898 39.0665 41.4614 37.5943 40.9594 35.9162C40.8327 35.5196 40.7866 35.1017 40.8237 34.687C40.8608 34.2723 40.9804 33.8693 41.1754 33.5014C41.3705 33.1336 41.6371 32.8085 41.9596 32.5451C42.282 32.2818 42.6538 32.0855 43.0532 31.9679C43.4526 31.8502 43.8714 31.8136 44.2852 31.8601C44.6989 31.9065 45.0992 32.0352 45.4625 32.2386C45.8258 32.4419 46.1448 32.7158 46.4008 33.0441C46.6568 33.3725 46.8446 33.7487 46.9531 34.1506C47.1875 34.9412 47.9281 35.4943 48.75 35.4943H51.25C51.7477 35.4943 52.225 35.2966 52.5769 34.9447C52.9289 34.5928 53.1266 34.1155 53.1266 33.6178C53.1266 33.1201 52.9289 32.6428 52.5769 32.2908C52.225 31.9389 51.7477 31.7412 51.25 31.7412H48.75C44.2688 31.7412 40.625 28.0943 40.625 23.6162C40.625 19.1381 44.2688 15.4912 48.75 15.4912H51.25C54.7531 15.4912 57.8469 17.7225 58.9562 21.0475C59.0924 21.4383 59.1496 21.8522 59.1245 22.2654C59.0994 22.6785 58.9925 23.0825 58.81 23.4539C58.6275 23.8254 58.373 24.1568 58.0613 24.4291C57.7497 24.7014 57.387 24.9091 56.9944 25.0401C56.6019 25.1711 56.1872 25.2228 55.7744 25.1923C55.3617 25.1617 54.9591 25.0494 54.5901 24.862C54.2212 24.6746 53.8931 24.4157 53.6249 24.1005C53.3568 23.7852 53.1539 23.4199 53.0281 23.0256C52.9049 22.6514 52.6667 22.3257 52.3473 22.0951C52.028 21.8644 51.6439 21.7406 51.25 21.7412H48.75C48.2527 21.7412 47.7758 21.9388 47.4242 22.2904C47.0725 22.642 46.875 23.1189 46.875 23.6162C46.875 24.1135 47.0725 24.5904 47.4242 24.942C47.7758 25.2937 48.2527 25.4912 48.75 25.4912H51.25C55.7312 25.4912 59.375 29.1381 59.375 33.6162C59.375 38.0943 55.7312 41.7412 51.25 41.7412Z" fill="black"/>
<path d="M50 19.2412C49.1531 19.2412 48.3719 18.8975 47.7812 18.335C47.6562 18.1787 47.5 18.0225 47.4063 17.835C47.2823 17.6756 47.1872 17.4958 47.125 17.3037C47.0351 17.1262 46.9709 16.9368 46.9344 16.7412C46.9063 16.5225 46.875 16.335 46.875 16.1162C46.875 15.3037 47.2156 14.4912 47.7812 13.8975C48.9375 12.7412 51.0312 12.7412 52.2187 13.8975C52.7812 14.4912 53.125 15.3037 53.125 16.1162C53.125 16.335 53.0938 16.5225 53.0594 16.7412C53.0268 16.9374 52.9635 17.1272 52.8719 17.3037C52.8085 17.4953 52.7134 17.6748 52.5906 17.835C52.4656 18.0225 52.3406 18.1787 52.2156 18.335C51.625 18.8975 50.8125 19.2412 50 19.2412ZM50 44.2412C49.1531 44.2412 48.3719 43.8975 47.7812 43.335C47.6562 43.1787 47.5 43.0225 47.4063 42.835C47.2823 42.6756 47.1872 42.4958 47.125 42.3037C47.0351 42.1262 46.9709 41.9368 46.9344 41.7412C46.9063 41.5225 46.875 41.335 46.875 41.1162C46.875 40.3037 47.2156 39.4912 47.7812 38.8975C48.9375 37.7412 51.0312 37.7412 52.2187 38.8975C52.7812 39.4912 53.125 40.3037 53.125 41.1162C53.125 41.335 53.0938 41.5225 53.0594 41.7412C53.0268 41.9374 52.9635 42.1272 52.8719 42.3037C52.8085 42.4953 52.7134 42.6748 52.5906 42.835C52.4656 43.0225 52.3406 43.1787 52.2156 43.335C51.625 43.8975 50.8125 44.2412 50 44.2412ZM56.25 97.3662H6.25C5.4212 97.3662 4.62634 97.037 4.04029 96.4509C3.45424 95.8649 3.125 95.07 3.125 94.2412V66.1162C3.125 65.2881 3.45312 64.4912 4.04062 63.9068C4.77187 63.1725 11.4156 56.7412 18.75 56.7412C24.825 56.7412 32.6625 61.3318 35.2969 62.9912H50C51.3678 62.9933 52.7187 63.2942 53.958 63.873C55.1974 64.4518 56.2953 65.2944 57.1749 66.3419C58.0545 67.3894 58.6946 68.6164 59.0503 69.9372C59.4061 71.258 59.4689 72.6405 59.2344 73.9881L83.8938 63.7131C85.3181 63.118 86.8676 62.8845 88.404 63.0334C89.9405 63.1822 91.4163 63.7088 92.7 64.5662C93.9855 65.4208 95.0396 66.5804 95.768 67.9414C96.4965 69.3024 96.8768 70.8225 96.875 72.3662C96.8752 72.9125 96.7321 73.4492 96.4602 73.923C96.1882 74.3967 95.7968 74.7909 95.325 75.0662L57.825 96.9412C57.3467 97.2194 56.8033 97.366 56.25 97.3662ZM9.375 91.1162H55.4031L90.2156 70.81C89.9729 70.3914 89.6371 70.0343 89.2344 69.7662C88.8082 69.4768 88.3162 69.2991 87.8035 69.2494C87.2908 69.1997 86.7738 69.2797 86.3 69.4818L57.4562 81.5006C57.0739 81.6594 56.664 81.7411 56.25 81.7412H31.25C30.4212 81.7412 29.6263 81.412 29.0403 80.8259C28.4542 80.2399 28.125 79.445 28.125 78.6162C28.125 77.7874 28.4542 76.9925 29.0403 76.4065C29.6263 75.8204 30.4212 75.4912 31.25 75.4912H50C50.8046 75.4552 51.5644 75.1103 52.121 74.5281C52.6777 73.946 52.9883 73.1716 52.9883 72.3662C52.9883 71.5608 52.6777 70.7864 52.121 70.2043C51.5644 69.6222 50.8046 69.2772 50 69.2412H34.375C33.7594 69.2412 33.1531 69.0568 32.6406 68.7193C30.25 67.1256 23.0844 62.9912 18.75 62.9912C15.3437 62.9912 11.4156 65.7412 9.375 67.4881V91.1162Z" fill="black"/>
</svg>
