<svg width="24" height="24" viewBox="0 0 24 24" fill="none" xmlns="http://www.w3.org/2000/svg">
<path fill-rule="evenodd" clip-rule="evenodd" d="M14 9.99998V8.00002L17.7452 7.99988C16.4803 6.18647 14.3787 5.00002 12 5.00002C8.13398 5.00002 5.00002 8.13398 5.00002 12C5.00002 15.866 8.13398 19 12 19C15.5719 19 18.519 16.3246 18.9466 12.8684L20.9314 13.1165C20.3816 17.5602 16.5925 21 12 21C7.02942 21 3 16.9706 3 12C3 7.02942 7.02942 3 12 3C14.8273 3 17.3501 4.30373 19.0001 6.3428L19 3H21V9.99998H14Z" fill="#CCCCCC"/>
</svg>
