<svg width="36" height="36" viewBox="0 0 36 36" fill="none" xmlns="http://www.w3.org/2000/svg">
<path d="M27 12H25.5V10.5C25.5 6.3645 22.1355 3 18 3C13.8645 3 10.5 6.3645 10.5 10.5V12H9C8.20435 12 7.44129 12.3161 6.87868 12.8787C6.31607 13.4413 6 14.2044 6 15V30C6 30.7956 6.31607 31.5587 6.87868 32.1213C7.44129 32.6839 8.20435 33 9 33H27C27.7956 33 28.5587 32.6839 29.1213 32.1213C29.6839 31.5587 30 30.7956 30 30V15C30 14.2044 29.6839 13.4413 29.1213 12.8787C28.5587 12.3161 27.7956 12 27 12ZM13.5 10.5C13.5 8.019 15.519 6 18 6C20.481 6 22.5 8.019 22.5 10.5V12H13.5V10.5ZM19.5 23.5845V27H16.5V23.5845C15.6075 23.0655 15 22.1085 15 21C15 20.2044 15.3161 19.4413 15.8787 18.8787C16.4413 18.3161 17.2044 18 18 18C18.7956 18 19.5587 18.3161 20.1213 18.8787C20.6839 19.4413 21 20.2044 21 21C21 22.107 20.3925 23.064 19.5 23.5845Z" fill="white"/>
</svg>
