<svg width="25" height="30" viewBox="0 0 25 30" fill="none" xmlns="http://www.w3.org/2000/svg">
<path d="M0 27.5002C0 28.1632 0.263392 28.7991 0.732233 29.2679C1.20107 29.7368 1.83696 30.0002 2.5 30.0002H22.5C23.163 30.0002 23.7989 29.7368 24.2678 29.2679C24.7366 28.7991 25 28.1632 25 27.5002V15.0002C25 14.3371 24.7366 13.7013 24.2678 13.2324C23.7989 12.7636 23.163 12.5002 22.5 12.5002H7.5V8.1252C7.5 6.79912 8.02678 5.52735 8.96447 4.58967C9.90215 3.65199 11.1739 3.12521 12.5 3.12521C13.8261 3.12521 15.0979 3.65199 16.0355 4.58967C16.9732 5.52735 17.5 6.79912 17.5 8.1252V8.4777C17.5 8.8921 17.6646 9.28953 17.9576 9.58255C18.2507 9.87558 18.6481 10.0402 19.0625 10.0402C19.4769 10.0402 19.8743 9.87558 20.1674 9.58255C20.4604 9.28953 20.625 8.8921 20.625 8.4777V8.43645V8.43895V8.12645C20.625 5.97157 19.769 3.90495 18.2452 2.38122C16.7215 0.857488 14.6549 0.00146484 12.5 0.00146484C10.3451 0.00146484 8.27849 0.857488 6.75476 2.38122C5.23102 3.90495 4.375 5.97157 4.375 8.12645V12.5014H2.5C1.83696 12.5014 1.20107 12.7648 0.732233 13.2337C0.263392 13.7025 0 14.3384 0 15.0014L0 27.5002ZM10 19.3752C10.0001 18.9421 10.1127 18.5164 10.3268 18.14C10.5409 17.7635 10.8491 17.4491 11.2212 17.2275C11.5934 17.006 12.0167 16.8849 12.4497 16.8762C12.8827 16.8675 13.3106 16.9715 13.6913 17.1778C14.0721 17.3842 14.3927 17.686 14.6218 18.0536C14.8508 18.4211 14.9804 18.8419 14.998 19.2747C15.0155 19.7074 14.9202 20.1373 14.7216 20.5222C14.523 20.907 14.2278 21.2337 13.865 21.4702L13.855 21.4764C13.855 21.4764 14.0987 22.9514 14.3737 24.6889V24.6902C14.3734 24.9384 14.2747 25.1763 14.0992 25.3518C13.9237 25.5273 13.6857 25.6261 13.4375 25.6264H11.56C11.3118 25.6261 11.0738 25.5273 10.8983 25.3518C10.7228 25.1763 10.6241 24.9384 10.6237 24.6902V24.6889L11.1425 21.4764C10.7914 21.25 10.5026 20.9391 10.3026 20.5723C10.1025 20.2054 9.99766 19.7943 9.9975 19.3764L10 19.3752Z" fill="white"/>
</svg>
